# xmcd CD database file
#
# Track frame offsets:
#        150
#        18623
#        35476
#        48698
#        64789
#        80575
#        94986
#        113307
#        124980
#        138837
#
# Disc length: 2163 seconds
#
# Revision: 0
# Processed by: cddbd v1.5.2PL0 Copyright (c) Steve Scherf et al.
# Submitted via: CUERipper 2.1.5
#
DISCID=8608710a
DTITLE=Fourteen Feet - Stole Away "The Billy Sessions"
DYEAR=2008
DGENRE=Roots
TTITLE0=Hometown
TTITLE1=Closer To You
TTITLE2=Jesus Loves You (Only He Could)
TTITLE3=Nowhere Fast
TTITLE4=Once Is Worth A Lifetime
TTITLE5=God's Conspiracy
TTITLE6=Stoleaway Gone
TTITLE7=Since The Other Night
TTITLE8=Shallow Waters
TTITLE9=Trackow Ground
EXTD=
EXTT0=
EXTT1=
EXTT2=
EXTT3=
EXTT4=
EXTT5=
EXTT6=
EXTT7=
EXTT8=
EXTT9=
PLAYORDER=
